<svg width="33" height="33" viewBox="0 0 33 33" fill="none" xmlns="http://www.w3.org/2000/svg">
<g filter="url(#filter0_d_162_442)">
<path fill-rule="evenodd" clip-rule="evenodd" d="M27.5065 1.10118C25.7302 -0.454264 22.9627 -0.347872 21.3244 1.33861C17.0976 5.69051 9.38579 13.6305 5.15899 17.9822C3.52079 19.6687 3.63279 22.2971 5.40904 23.8524C5.40904 23.8526 5.40931 23.8526 5.40931 23.8528C7.18563 25.408 9.95353 25.3018 11.5914 23.6154C15.8184 19.2632 23.53 11.3239 27.757 6.97175C29.3951 5.28526 29.2833 2.65704 27.5072 1.10139C27.5067 1.10139 27.5067 1.10118 27.5065 1.10118Z" fill="white"/>
<path fill-rule="evenodd" clip-rule="evenodd" d="M19.7681 15.1969C20.4631 14.4612 20.8854 13.4894 20.8854 12.424V12.4234C20.8854 10.1288 18.9268 8.26933 16.5106 8.26933H14.593L21.3244 1.33851C22.9628 -0.347969 25.7302 -0.454361 27.5066 1.10108C27.5068 1.10108 27.5068 1.10129 27.5072 1.10129C29.2833 2.65694 29.3952 5.28517 27.7571 6.97165L19.7681 15.1969Z" fill="white"/>
<path fill-rule="evenodd" clip-rule="evenodd" d="M28.9198 4.15394C28.9198 1.86003 26.9613 -0.000100349 24.5448 -0.000100349H4.04388V0.000116106C4.04388 2.20407 4.96585 4.3172 6.60696 5.87524C8.24803 7.43349 10.4737 8.30884 12.7943 8.30884C16.7713 8.30884 21.3012 8.30884 24.5448 8.30884C26.9613 8.30884 28.9198 6.44914 28.9198 4.15459V4.15394Z" fill="#FFD166"/>
<path fill-rule="evenodd" clip-rule="evenodd" d="M18.1883 16.7971H8.09091C5.66281 16.7971 4 18.633 4 20.8971V20.8977C4 23.1621 6.04625 24.9977 8.47435 24.9977H29C29 23.1328 28.3187 21.3327 27.0805 19.8908L23.3691 23.6611C21.7272 25.3293 18.9459 25.4403 17.1568 23.909C15.3677 22.3778 15.2483 19.7839 16.8904 18.1161L18.1883 16.7971Z" fill="#1686E2"/>
<mask id="mask0_162_442" style="mask-type:luminance" maskUnits="userSpaceOnUse" x="4" y="16" width="25" height="9">
<path fill-rule="evenodd" clip-rule="evenodd" d="M18.5815 16.7973H9.146C6.80619 16.7973 4.90912 18.6331 4.90912 20.8972V20.8979C4.90912 23.1622 6.80619 24.9978 9.146 24.9978H29V24.9974C29 23.1325 28.3435 21.3328 27.1503 19.891L23.5739 23.6612C21.9916 25.3295 19.3115 25.4404 17.5875 23.9092C15.8635 22.3779 15.7483 19.784 17.3308 18.1162L18.5815 16.7973Z" fill="white"/>
</mask>
<g mask="url(#mask0_162_442)">
<path fill-rule="evenodd" clip-rule="evenodd" d="M19.7838 23.1842C19.7745 24.1925 19.687 25.4232 20.2504 26.3355C21.3878 28.1757 23.8154 28.5278 25.8598 28.3861C30.1959 28.0855 33.3851 24.5913 32.0875 20.4796C31.6042 18.9477 30.7876 17.5381 29.6329 16.3684C28.1727 14.8891 26.477 13.9767 24.4148 13.4995" fill="#1686E2"/>
</g>
<path fill-rule="evenodd" clip-rule="evenodd" d="M18.1621 16.7L16.8706 18.0364C15.2366 19.7263 15.3552 22.3543 17.1354 23.9059L17.1357 23.9061C18.9159 25.4576 21.6833 25.3452 23.3171 23.6548L27.0101 19.8347C26.8099 19.5886 26.591 19.3555 26.3571 19.1338C24.7163 17.5756 22.4906 16.7 20.1698 16.7H18.1621Z" fill="#FFD166"/>
</g>
<defs>
<filter id="filter0_d_162_442" x="0.124402" y="-0.00012207" width="32.7512" height="32.7513" filterUnits="userSpaceOnUse" color-interpolation-filters="sRGB">
<feFlood flood-opacity="0" result="BackgroundImageFix"/>
<feColorMatrix in="SourceAlpha" type="matrix" values="0 0 0 0 0 0 0 0 0 0 0 0 0 0 0 0 0 0 127 0" result="hardAlpha"/>
<feOffset dy="3.8756"/>
<feGaussianBlur stdDeviation="1.9378"/>
<feComposite in2="hardAlpha" operator="out"/>
<feColorMatrix type="matrix" values="0 0 0 0 0.0255035 0 0 0 0 0.269125 0 0 0 0 0.470833 0 0 0 0.24 0"/>
<feBlend mode="normal" in2="BackgroundImageFix" result="effect1_dropShadow_162_442"/>
<feBlend mode="normal" in="SourceGraphic" in2="effect1_dropShadow_162_442" result="shape"/>
</filter>
</defs>
</svg>
